<svg data-v-423bf9ae="" xmlns="http://www.w3.org/2000/svg" viewBox="0 0 314.5970110567145 60" class="font"><!----><!----><!----><g data-v-423bf9ae="" id="29b8779f-f516-4245-bfc8-fc441d5b0137" fill="black" transform="matrix(4.477611749096269,0,0,4.477611749096269,-2.5522400195601165,-13.208954158087423)"><path d="M4.33 13.66L4.33 13.66Q3.22 13.66 2.19 13.32L2.19 13.32L2.19 13.32Q1.16 12.98 0.57 12.43L0.57 12.43L1.09 11.34L1.09 11.34Q1.65 11.84 2.53 12.16L2.53 12.16L2.53 12.16Q3.40 12.47 4.33 12.47L4.33 12.47L4.33 12.47Q5.54 12.47 6.15 12.06L6.15 12.06L6.15 12.06Q6.75 11.65 6.75 10.96L6.75 10.96L6.75 10.96Q6.75 10.46 6.42 10.14L6.42 10.14L6.42 10.14Q6.09 9.83 5.61 9.66L5.61 9.66L5.61 9.66Q5.12 9.49 4.24 9.28L4.24 9.28L4.24 9.28Q3.14 9.02 2.46 8.75L2.46 8.75L2.46 8.75Q1.78 8.48 1.29 7.93L1.29 7.93L1.29 7.93Q0.81 7.38 0.81 6.44L0.81 6.44L0.81 6.44Q0.81 5.66 1.23 5.03L1.23 5.03L1.23 5.03Q1.64 4.40 2.48 4.02L2.48 4.02L2.48 4.02Q3.32 3.64 4.56 3.64L4.56 3.64L4.56 3.64Q5.43 3.64 6.27 3.86L6.27 3.86L6.27 3.86Q7.11 4.09 7.71 4.51L7.71 4.51L7.25 5.63L7.25 5.63Q6.64 5.24 5.94 5.03L5.94 5.03L5.94 5.03Q5.24 4.83 4.56 4.83L4.56 4.83L4.56 4.83Q3.37 4.83 2.78 5.26L2.78 5.26L2.78 5.26Q2.18 5.70 2.18 6.38L2.18 6.38L2.18 6.38Q2.18 6.89 2.52 7.20L2.52 7.20L2.52 7.20Q2.86 7.52 3.35 7.69L3.35 7.69L3.35 7.69Q3.85 7.87 4.70 8.06L4.70 8.06L4.70 8.06Q5.81 8.33 6.48 8.60L6.48 8.60L6.48 8.60Q7.15 8.86 7.64 9.41L7.64 9.41L7.64 9.41Q8.12 9.95 8.12 10.88L8.12 10.88L8.12 10.88Q8.12 11.65 7.70 12.29L7.70 12.29L7.70 12.29Q7.28 12.92 6.43 13.29L6.43 13.29L6.43 13.29Q5.57 13.66 4.33 13.66L4.33 13.66ZM12.67 6.06L12.67 6.06Q14.21 6.06 15.03 6.82L15.03 6.82L15.03 6.82Q15.85 7.57 15.85 9.07L15.85 9.07L15.85 13.55L14.57 13.55L14.57 12.57L14.57 12.57Q14.24 13.09 13.62 13.36L13.62 13.36L13.62 13.36Q12.99 13.64 12.14 13.64L12.14 13.64L12.14 13.64Q10.89 13.64 10.14 13.03L10.14 13.03L10.14 13.03Q9.39 12.43 9.39 11.45L9.39 11.45L9.39 11.45Q9.39 10.47 10.11 9.88L10.11 9.88L10.11 9.88Q10.82 9.28 12.38 9.28L12.38 9.28L14.50 9.28L14.50 9.02L14.50 9.02Q14.50 8.15 14 7.69L14 7.69L14 7.69Q13.50 7.22 12.52 7.22L12.52 7.22L12.52 7.22Q11.86 7.22 11.23 7.44L11.23 7.44L11.23 7.44Q10.60 7.66 10.16 8.02L10.16 8.02L9.60 7.01L9.60 7.01Q10.18 6.55 10.98 6.31L10.98 6.31L10.98 6.31Q11.77 6.06 12.67 6.06L12.67 6.06ZM12.36 12.60L12.36 12.60Q13.13 12.60 13.69 12.26L13.69 12.26L13.69 12.26Q14.25 11.91 14.50 11.28L14.50 11.28L14.50 10.25L12.43 10.25L12.43 10.25Q10.72 10.25 10.72 11.40L10.72 11.40L10.72 11.40Q10.72 11.96 11.16 12.28L11.16 12.28L11.16 12.28Q11.59 12.60 12.36 12.60L12.36 12.60ZM27.62 6.06L27.62 6.06Q29.02 6.06 29.84 6.87L29.84 6.87L29.84 6.87Q30.66 7.69 30.66 9.28L30.66 9.28L30.66 13.55L29.32 13.55L29.32 9.44L29.32 9.44Q29.32 8.36 28.82 7.81L28.82 7.81L28.82 7.81Q28.32 7.27 27.40 7.27L27.40 7.27L27.40 7.27Q26.38 7.27 25.77 7.90L25.77 7.90L25.77 7.90Q25.17 8.54 25.17 9.73L25.17 9.73L25.17 13.55L23.83 13.55L23.83 9.44L23.83 9.44Q23.83 8.36 23.33 7.81L23.33 7.81L23.33 7.81Q22.83 7.27 21.91 7.27L21.91 7.27L21.91 7.27Q20.89 7.27 20.29 7.90L20.29 7.90L20.29 7.90Q19.68 8.54 19.68 9.73L19.68 9.73L19.68 13.55L18.34 13.55L18.34 6.13L19.63 6.13L19.63 7.24L19.63 7.24Q20.03 6.66 20.69 6.36L20.69 6.36L20.69 6.36Q21.35 6.06 22.19 6.06L22.19 6.06L22.19 6.06Q23.06 6.06 23.73 6.41L23.73 6.41L23.73 6.41Q24.40 6.76 24.77 7.43L24.77 7.43L24.77 7.43Q25.19 6.79 25.94 6.43L25.94 6.43L25.94 6.43Q26.68 6.06 27.62 6.06L27.62 6.06ZM44.42 13.55L43.34 11.10L38.14 11.10L37.06 13.55L35.62 13.55L40.05 3.75L41.44 3.75L45.89 13.55L44.42 13.55ZM38.63 9.98L42.85 9.98L40.74 5.18L38.63 9.98ZM52.81 3.16L54.15 3.16L54.15 13.55L52.86 13.55L52.86 12.38L52.86 12.38Q52.42 12.99 51.73 13.31L51.73 13.31L51.73 13.31Q51.04 13.64 50.22 13.64L50.22 13.64L50.22 13.64Q49.14 13.64 48.29 13.16L48.29 13.16L48.29 13.16Q47.43 12.68 46.95 11.82L46.95 11.82L46.95 11.82Q46.47 10.96 46.47 9.84L46.47 9.84L46.47 9.84Q46.47 8.72 46.95 7.87L46.95 7.87L46.95 7.87Q47.43 7.01 48.29 6.54L48.29 6.54L48.29 6.54Q49.14 6.06 50.22 6.06L50.22 6.06L50.22 6.06Q51.02 6.06 51.69 6.36L51.69 6.36L51.69 6.36Q52.36 6.66 52.81 7.25L52.81 7.25L52.81 3.16ZM50.33 12.46L50.33 12.46Q51.03 12.46 51.60 12.13L51.60 12.13L51.60 12.13Q52.18 11.80 52.50 11.21L52.50 11.21L52.50 11.21Q52.82 10.61 52.82 9.84L52.82 9.84L52.82 9.84Q52.82 9.07 52.50 8.48L52.50 8.48L52.50 8.48Q52.18 7.88 51.60 7.56L51.60 7.56L51.60 7.56Q51.03 7.24 50.33 7.24L50.33 7.24L50.33 7.24Q49.62 7.24 49.05 7.56L49.05 7.56L49.05 7.56Q48.48 7.88 48.15 8.48L48.15 8.48L48.15 8.48Q47.82 9.07 47.82 9.84L47.82 9.84L47.82 9.84Q47.82 10.61 48.15 11.21L48.15 11.21L48.15 11.21Q48.48 11.80 49.05 12.13L49.05 12.13L49.05 12.13Q49.62 12.46 50.33 12.46L50.33 12.46ZM55.75 16.35L55.75 16.35Q55.26 16.35 54.84 16.24L54.84 16.24L54.84 16.24Q54.42 16.13 54.14 15.90L54.14 15.90L54.57 14.87L54.57 14.87Q54.99 15.22 55.66 15.22L55.66 15.22L55.66 15.22Q56.20 15.22 56.48 14.89L56.48 14.89L56.48 14.89Q56.77 14.56 56.77 13.92L56.77 13.92L56.77 6.13L58.11 6.13L58.11 13.89L58.11 13.89Q58.11 15.04 57.50 15.69L57.50 15.69L57.50 15.69Q56.88 16.35 55.75 16.35L55.75 16.35ZM57.44 4.70L57.44 4.70Q57.05 4.70 56.79 4.45L56.79 4.45L56.79 4.45Q56.53 4.20 56.53 3.84L56.53 3.84L56.53 3.84Q56.53 3.47 56.79 3.21L56.79 3.21L56.79 3.21Q57.05 2.95 57.44 2.95L57.44 2.95L57.44 2.95Q57.83 2.95 58.09 3.20L58.09 3.20L58.09 3.20Q58.35 3.44 58.35 3.81L58.35 3.81L58.35 3.81Q58.35 4.19 58.09 4.45L58.09 4.45L58.09 4.45Q57.83 4.70 57.44 4.70L57.44 4.70ZM67.38 9.88L67.38 9.88Q67.38 10.04 67.35 10.29L67.35 10.29L61.33 10.29L61.33 10.29Q61.46 11.27 62.20 11.87L62.20 11.87L62.20 11.87Q62.93 12.46 64.02 12.46L64.02 12.46L64.02 12.46Q65.35 12.46 66.16 11.56L66.16 11.56L66.91 12.43L66.91 12.43Q66.40 13.02 65.65 13.33L65.65 13.33L65.65 13.33Q64.90 13.64 63.98 13.64L63.98 13.64L63.98 13.64Q62.80 13.64 61.89 13.15L61.89 13.15L61.89 13.15Q60.98 12.67 60.49 11.80L60.49 11.80L60.49 11.80Q59.99 10.93 59.99 9.84L59.99 9.84L59.99 9.84Q59.99 8.76 60.47 7.90L60.47 7.90L60.47 7.90Q60.96 7.03 61.80 6.54L61.80 6.54L61.80 6.54Q62.65 6.06 63.71 6.06L63.71 6.06L63.71 6.06Q64.78 6.06 65.61 6.54L65.61 6.54L65.61 6.54Q66.44 7.03 66.91 7.90L66.91 7.90L66.91 7.90Q67.38 8.76 67.38 9.88L67.38 9.88ZM63.71 7.20L63.71 7.20Q62.75 7.20 62.10 7.78L62.10 7.78L62.10 7.78Q61.45 8.37 61.33 9.32L61.33 9.32L66.09 9.32L66.09 9.32Q65.98 8.39 65.33 7.79L65.33 7.79L65.33 7.79Q64.68 7.20 63.71 7.20L63.71 7.20ZM69.24 13.55L69.24 6.13L70.59 6.13L70.59 13.55L69.24 13.55ZM69.92 4.70L69.92 4.70Q69.52 4.70 69.27 4.45L69.27 4.45L69.27 4.45Q69.01 4.20 69.01 3.84L69.01 3.84L69.01 3.84Q69.01 3.47 69.27 3.21L69.27 3.21L69.27 3.21Q69.52 2.95 69.92 2.95L69.92 2.95L69.92 2.95Q70.31 2.95 70.57 3.20L70.57 3.20L70.57 3.20Q70.83 3.44 70.83 3.81L70.83 3.81L70.83 3.81Q70.83 4.19 70.57 4.45L70.57 4.45L70.57 4.45Q70.31 4.70 69.92 4.70L69.92 4.70Z"></path></g><!----><!----></svg>